<svg xmlns="http://www.w3.org/2000/svg" viewBox="0 0 64 64" width="128" height="128" fill="none" stroke="#000"
    stroke-width="2">

    <!-- Fundo branco -->
    <circle cx="32" cy="32" r="32" fill="#ffffff" />
    <!-- Chip's central square -->
    <rect x="22" y="22" width="20" height="20" fill="none" stroke="#000" />

    <!-- Inner square -->
    <rect x="27" y="27" width="10" height="10" fill="none" stroke="#000" />

    <!-- Top connections -->
    <line x1="32" y1="10" x2="32" y2="22" />
    <circle cx="32" cy="8" r="2" fill="#000" />
    <line x1="42" y1="8" x2="42" y2="22" />
    <circle cx="42" cy="8" r="2" fill="#000" />
    <line x1="22" y1="8" x2="22" y2="22" />
    <circle cx="22" cy="8" r="2" fill="#000" />

    <!-- Bottom connections -->
    <line x1="32" y1="54" x2="32" y2="42" />
    <circle cx="32" cy="56" r="2" fill="#000" />
    <line x1="22" y1="54" x2="22" y2="42" />
    <circle cx="22" cy="56" r="2" fill="#000" />
    <line x1="42" y1="54" x2="42" y2="42" />
    <circle cx="42" cy="56" r="2" fill="#000" />

    <!-- Left connections -->
    <line x1="10" y1="32" x2="22" y2="32" />
    <circle cx="8" cy="32" r="2" fill="#000" />
    <line x1="10" y1="42" x2="22" y2="42" />
    <circle cx="8" cy="42" r="2" fill="#000" />
    <line x1="10" y1="22" x2="22" y2="22" />
    <circle cx="8" cy="22" r="2" fill="#000" />

    <!-- Right connections -->
    <line x1="54" y1="32" x2="42" y2="32" />
    <circle cx="56" cy="32" r="2" fill="#000" />
    <line x1="54" y1="42" x2="42" y2="42" />
    <circle cx="56" cy="42" r="2" fill="#000" />
    <line x1="54" y1="22" x2="42" y2="22" />
    <circle cx="56" cy="22" r="2" fill="#000" />
</svg>